<?xml version="1.0" encoding="UTF-8" standalone="no"?>
<!-- Created with Inkscape (http://www.inkscape.org/) -->

<svg
   version="1.1"
   id="svg1"
   width="1280"
   height="720"
   viewBox="0 0 1280 720"
   sodipodi:docname="cdm_mapper_diagram.svg"
   inkscape:version="1.3.2 (091e20e, 2023-11-25, custom)"
   xmlns:inkscape="http://www.inkscape.org/namespaces/inkscape"
   xmlns:sodipodi="http://sodipodi.sourceforge.net/DTD/sodipodi-0.dtd"
   xmlns="http://www.w3.org/2000/svg"
   xmlns:svg="http://www.w3.org/2000/svg">
  <defs
     id="defs1">
    <clipPath
       clipPathUnits="userSpaceOnUse"
       id="clipPath3">
      <path
         d="M 0,1.2207e-4 H 960 V 540.00012 H 0 Z"
         clip-rule="evenodd"
         id="path3" />
    </clipPath>
    <clipPath
       clipPathUnits="userSpaceOnUse"
       id="clipPath5">
      <path
         d="M 1.4305e-5,0 H 960.00001 V 540 H 1.4305e-5 Z"
         transform="matrix(1,0,0,-1,-261.84001,418.97001)"
         clip-rule="evenodd"
         id="path5" />
    </clipPath>
    <clipPath
       clipPathUnits="userSpaceOnUse"
       id="clipPath6">
      <path
         d="M 1.4305e-5,0 H 960.00001 V 540 H 1.4305e-5 Z"
         transform="matrix(1,0,0,-1,-336.36001,418.97001)"
         clip-rule="evenodd"
         id="path6" />
    </clipPath>
    <clipPath
       clipPathUnits="userSpaceOnUse"
       id="clipPath7">
      <path
         d="M 1.4305e-5,0 H 960.00001 V 540 H 1.4305e-5 Z"
         transform="matrix(1,0,0,-1,-419.66001,418.97001)"
         clip-rule="evenodd"
         id="path7" />
    </clipPath>
    <clipPath
       clipPathUnits="userSpaceOnUse"
       id="clipPath9">
      <path
         d="M 1.4305e-5,0 H 960.00001 V 540 H 1.4305e-5 Z"
         transform="matrix(1,0,0,-1,-217.97001,157.87)"
         clip-rule="evenodd"
         id="path9" />
    </clipPath>
    <clipPath
       clipPathUnits="userSpaceOnUse"
       id="clipPath10">
      <path
         d="M 1.4305e-5,0 H 960.00001 V 540 H 1.4305e-5 Z"
         transform="matrix(1,0,0,-1,-246.79,157.87)"
         clip-rule="evenodd"
         id="path10" />
    </clipPath>
    <clipPath
       clipPathUnits="userSpaceOnUse"
       id="clipPath18">
      <path
         d="M 1.4305e-5,0 H 960.00001 V 540 H 1.4305e-5 Z"
         transform="matrix(1,0,0,-1,-218.33001,326.95001)"
         clip-rule="evenodd"
         id="path18" />
    </clipPath>
    <clipPath
       clipPathUnits="userSpaceOnUse"
       id="clipPath20">
      <path
         d="M 1.4305e-5,0 H 960.00001 V 540 H 1.4305e-5 Z"
         transform="matrix(1,0,0,-1,-397.85001,393.72001)"
         clip-rule="evenodd"
         id="path20" />
    </clipPath>
    <clipPath
       clipPathUnits="userSpaceOnUse"
       id="clipPath21">
      <path
         d="M 1.4305e-5,0 H 960.00001 V 540 H 1.4305e-5 Z"
         transform="matrix(1,0,0,-1,-403.73001,393.72001)"
         clip-rule="evenodd"
         id="path21" />
    </clipPath>
    <clipPath
       clipPathUnits="userSpaceOnUse"
       id="clipPath22">
      <path
         d="M 1.4305e-5,0 H 960.00001 V 540 H 1.4305e-5 Z"
         transform="matrix(1,0,0,-1,-456.41001,393.72001)"
         clip-rule="evenodd"
         id="path22" />
    </clipPath>
    <clipPath
       clipPathUnits="userSpaceOnUse"
       id="clipPath24">
      <path
         d="M 1.4305e-5,0 H 960.00001 V 540 H 1.4305e-5 Z"
         transform="matrix(1,0,0,-1,-398.16001,326.95001)"
         clip-rule="evenodd"
         id="path24" />
    </clipPath>
    <clipPath
       clipPathUnits="userSpaceOnUse"
       id="clipPath25">
      <path
         d="M 1.4305e-5,0 H 960.00001 V 540 H 1.4305e-5 Z"
         transform="matrix(1,0,0,-1,-405.00001,326.95001)"
         clip-rule="evenodd"
         id="path25" />
    </clipPath>
    <clipPath
       clipPathUnits="userSpaceOnUse"
       id="clipPath27">
      <path
         d="M 1.4305e-5,0 H 960.00001 V 540 H 1.4305e-5 Z"
         transform="matrix(1,0,0,-1,-359.21001,260.18001)"
         clip-rule="evenodd"
         id="path27" />
    </clipPath>
    <clipPath
       clipPathUnits="userSpaceOnUse"
       id="clipPath28">
      <path
         d="M 1.4305e-5,0 H 960.00001 V 540 H 1.4305e-5 Z"
         transform="matrix(1,0,0,-1,-365.81001,260.18001)"
         clip-rule="evenodd"
         id="path28" />
    </clipPath>
    <clipPath
       clipPathUnits="userSpaceOnUse"
       id="clipPath29">
      <path
         d="M 1.4305e-5,0 H 960.00001 V 540 H 1.4305e-5 Z"
         transform="matrix(1,0,0,-1,-428.59001,260.18001)"
         clip-rule="evenodd"
         id="path29" />
    </clipPath>
    <clipPath
       clipPathUnits="userSpaceOnUse"
       id="clipPath30">
      <path
         d="M 1.4305e-5,0 H 960.00001 V 540 H 1.4305e-5 Z"
         transform="matrix(1,0,0,-1,-432.07001,260.18001)"
         clip-rule="evenodd"
         id="path30" />
    </clipPath>
    <clipPath
       clipPathUnits="userSpaceOnUse"
       id="clipPath32">
      <path
         d="M 1.4305e-5,0 H 960.00001 V 540 H 1.4305e-5 Z"
         transform="matrix(1,0,0,-1,-185.42001,134.33001)"
         clip-rule="evenodd"
         id="path32" />
    </clipPath>
    <clipPath
       clipPathUnits="userSpaceOnUse"
       id="clipPath33">
      <path
         d="M 1.4305e-5,0 H 960.00001 V 540 H 1.4305e-5 Z"
         transform="matrix(1,0,0,-1,-192.26001,134.33001)"
         clip-rule="evenodd"
         id="path33" />
    </clipPath>
    <clipPath
       clipPathUnits="userSpaceOnUse"
       id="clipPath34">
      <path
         d="M 1.4305e-5,0 H 960.00001 V 540 H 1.4305e-5 Z"
         transform="matrix(1,0,0,-1,-185.42001,119.93001)"
         clip-rule="evenodd"
         id="path34" />
    </clipPath>
    <clipPath
       clipPathUnits="userSpaceOnUse"
       id="clipPath35">
      <path
         d="M 1.4305e-5,0 H 960.00001 V 540 H 1.4305e-5 Z"
         transform="matrix(1,0,0,-1,-209.06001,119.93001)"
         clip-rule="evenodd"
         id="path35" />
    </clipPath>
    <clipPath
       clipPathUnits="userSpaceOnUse"
       id="clipPath36">
      <path
         d="M 1.4305e-5,0 H 960.00001 V 540 H 1.4305e-5 Z"
         transform="matrix(1,0,0,-1,-248.18001,119.93001)"
         clip-rule="evenodd"
         id="path36" />
    </clipPath>
    <clipPath
       clipPathUnits="userSpaceOnUse"
       id="clipPath37">
      <path
         d="M 1.4305e-5,0 H 960.00001 V 540 H 1.4305e-5 Z"
         transform="matrix(1,0,0,-1,-185.42001,105.53001)"
         clip-rule="evenodd"
         id="path37" />
    </clipPath>
    <clipPath
       clipPathUnits="userSpaceOnUse"
       id="clipPath39">
      <path
         d="M 1.4305e-5,0 H 960.00001 V 540 H 1.4305e-5 Z"
         transform="matrix(1,0,0,-1,-362.93001,112.39)"
         clip-rule="evenodd"
         id="path39" />
    </clipPath>
    <clipPath
       clipPathUnits="userSpaceOnUse"
       id="clipPath40">
      <path
         d="M 1.4305e-5,0 H 960.00001 V 540 H 1.4305e-5 Z"
         transform="matrix(1,0,0,-1,-495.91001,112.39)"
         clip-rule="evenodd"
         id="path40" />
    </clipPath>
    <clipPath
       clipPathUnits="userSpaceOnUse"
       id="clipPath42">
      <path
         d="M 1.4305e-5,0 H 960.00001 V 540 H 1.4305e-5 Z"
         transform="matrix(1,0,0,-1,-654.50002,139.46001)"
         clip-rule="evenodd"
         id="path42" />
    </clipPath>
    <clipPath
       clipPathUnits="userSpaceOnUse"
       id="clipPath43">
      <path
         d="M 1.4305e-5,0 H 960.00001 V 540 H 1.4305e-5 Z"
         transform="matrix(1,0,0,-1,-576.38002,109.2)"
         clip-rule="evenodd"
         id="path43" />
    </clipPath>
    <clipPath
       clipPathUnits="userSpaceOnUse"
       id="clipPath44">
      <path
         d="M 1.4305e-5,0 H 960.00001 V 540 H 1.4305e-5 Z"
         transform="matrix(1,0,0,-1,-587.18002,109.2)"
         clip-rule="evenodd"
         id="path44" />
    </clipPath>
    <clipPath
       clipPathUnits="userSpaceOnUse"
       id="clipPath45">
      <path
         d="M 1.4305e-5,0 H 960.00001 V 540 H 1.4305e-5 Z"
         transform="matrix(1,0,0,-1,-628.34002,109.2)"
         clip-rule="evenodd"
         id="path45" />
    </clipPath>
    <clipPath
       clipPathUnits="userSpaceOnUse"
       id="clipPath46">
      <path
         d="M 1.4305e-5,0 H 960.00001 V 540 H 1.4305e-5 Z"
         transform="matrix(1,0,0,-1,-685.61002,109.2)"
         clip-rule="evenodd"
         id="path46" />
    </clipPath>
    <clipPath
       clipPathUnits="userSpaceOnUse"
       id="clipPath47">
      <path
         d="M 1.4305e-5,0 H 960.00001 V 540 H 1.4305e-5 Z"
         transform="matrix(1,0,0,-1,-703.73002,109.2)"
         clip-rule="evenodd"
         id="path47" />
    </clipPath>
    <clipPath
       clipPathUnits="userSpaceOnUse"
       id="clipPath48">
      <path
         d="M 1.4305e-5,0 H 960.00001 V 540 H 1.4305e-5 Z"
         transform="matrix(1,0,0,-1,-733.13002,109.2)"
         clip-rule="evenodd"
         id="path48" />
    </clipPath>
    <clipPath
       clipPathUnits="userSpaceOnUse"
       id="clipPath49">
      <path
         d="M 1.4305e-5,0 H 960.00001 V 540 H 1.4305e-5 Z"
         transform="matrix(1,0,0,-1,-761.81004,109.2)"
         clip-rule="evenodd"
         id="path49" />
    </clipPath>
    <clipPath
       clipPathUnits="userSpaceOnUse"
       id="clipPath50">
      <path
         d="M 1.4305e-5,0 H 960.00001 V 540 H 1.4305e-5 Z"
         transform="matrix(1,0,0,-1,-621.38002,94.800002)"
         clip-rule="evenodd"
         id="path50" />
    </clipPath>
    <clipPath
       clipPathUnits="userSpaceOnUse"
       id="clipPath51">
      <path
         d="M 1.4305e-5,0 H 960.00001 V 540 H 1.4305e-5 Z"
         transform="matrix(1,0,0,-1,-673.01002,94.800002)"
         clip-rule="evenodd"
         id="path51" />
    </clipPath>
    <clipPath
       clipPathUnits="userSpaceOnUse"
       id="clipPath52">
      <path
         d="M 1.4305e-5,0 H 960.00001 V 540 H 1.4305e-5 Z"
         transform="matrix(1,0,0,-1,-686.33002,94.800002)"
         clip-rule="evenodd"
         id="path52" />
    </clipPath>
    <clipPath
       clipPathUnits="userSpaceOnUse"
       id="clipPath53">
      <path
         d="M 1.4305e-5,0 H 960.00001 V 540 H 1.4305e-5 Z"
         transform="matrix(1,0,0,-1,-707.45002,94.800002)"
         clip-rule="evenodd"
         id="path53" />
    </clipPath>
    <clipPath
       clipPathUnits="userSpaceOnUse"
       id="clipPath54">
      <path
         d="M 1.4305e-5,0 H 960.00001 V 540 H 1.4305e-5 Z"
         transform="matrix(1,0,0,-1,-613.82002,80.400002)"
         clip-rule="evenodd"
         id="path54" />
    </clipPath>
    <clipPath
       clipPathUnits="userSpaceOnUse"
       id="clipPath55">
      <path
         d="M 1.4305e-5,0 H 960.00001 V 540 H 1.4305e-5 Z"
         transform="matrix(1,0,0,-1,-637.46002,80.400002)"
         clip-rule="evenodd"
         id="path55" />
    </clipPath>
    <clipPath
       clipPathUnits="userSpaceOnUse"
       id="clipPath56">
      <path
         d="M 1.4305e-5,0 H 960.00001 V 540 H 1.4305e-5 Z"
         transform="matrix(1,0,0,-1,-675.41002,80.400002)"
         clip-rule="evenodd"
         id="path56" />
    </clipPath>
    <clipPath
       clipPathUnits="userSpaceOnUse"
       id="clipPath57">
      <path
         d="M 1.4305e-5,0 H 960.00001 V 540 H 1.4305e-5 Z"
         transform="matrix(1,0,0,-1,-682.25002,80.400002)"
         clip-rule="evenodd"
         id="path57" />
    </clipPath>
  </defs>
  <sodipodi:namedview
     id="namedview1"
     pagecolor="#ffffff"
     bordercolor="#000000"
     borderopacity="0.25"
     inkscape:showpageshadow="2"
     inkscape:pageopacity="0.0"
     inkscape:pagecheckerboard="0"
     inkscape:deskcolor="#d1d1d1"
     inkscape:zoom="1.0671875"
     inkscape:cx="823.66032"
     inkscape:cy="360.29283"
     inkscape:window-width="1920"
     inkscape:window-height="1137"
     inkscape:window-x="1912"
     inkscape:window-y="-8"
     inkscape:window-maximized="1"
     inkscape:current-layer="g1">
    <inkscape:page
       x="0"
       y="0"
       inkscape:label="1"
       id="page1"
       width="1280"
       height="720"
       margin="0"
       bleed="0" />
  </sodipodi:namedview>
  <g
     id="g1"
     inkscape:groupmode="layer"
     inkscape:label="1">
    <g
       id="g3"
       transform="matrix(1.3035789,0,0,1.2973266,-110.39079,-164.32845)">
      <path
         id="path4"
         d="M 161.96,223.46 H 530.17 V 439.49 H 161.96 Z"
         style="fill:#ffffff;fill-opacity:1;fill-rule:evenodd;stroke:#333333;stroke-width:0.72;stroke-linecap:butt;stroke-linejoin:miter;stroke-miterlimit:10;stroke-dasharray:none;stroke-opacity:1"
         transform="matrix(1.3333333,0,0,-1.3333333,0,720)" />
    </g>
    <g
       id="g4"
       transform="matrix(1.3035789,0,0,1.2973266,-110.39079,-164.32845)">
      <text
         id="text4"
         xml:space="preserve"
         transform="matrix(1.3333333,0,0,1.3333333,349.12,161.37333)"
         clip-path="url(#clipPath5)"><tspan
           style="font-variant:normal;font-weight:normal;font-stretch:semi-condensed;font-size:18px;font-family:'DejaVu Sans';writing-mode:lr-tb;fill:#000000;fill-opacity:1;fill-rule:nonzero;stroke:none"
           x="0 13.968 23.886 34.164001 44.495998 49.032001 59.327999 69.606003"
           y="0"
           sodipodi:role="line"
           id="tspan4">Mapping </tspan></text>
    </g>
    <g
       id="g5"
       transform="matrix(1.3035789,0,0,1.2973266,-110.39079,-164.32845)">
      <text
         id="text5"
         xml:space="preserve"
         transform="matrix(1.3333333,0,0,1.3333333,448.48,161.37333)"
         clip-path="url(#clipPath6)"><tspan
           style="font-variant:normal;font-weight:normal;font-stretch:semi-condensed;font-size:18px;font-family:'DejaVu Sans';writing-mode:lr-tb;fill:#000000;fill-opacity:1;fill-rule:nonzero;stroke:none"
           x="0 4.5359998 14.832 20.52 30.42 36.666 52.433998 62.352001 68.706001 73.241997"
           y="0"
           sodipodi:role="line"
           id="tspan5">informatio</tspan></text>
    </g>
    <g
       id="g6"
       transform="matrix(1.3035789,0,0,1.2973266,-110.39079,-164.32845)">
      <text
         id="text6"
         xml:space="preserve"
         transform="matrix(1.3333333,0,0,1.3333333,559.54667,161.37333)"
         clip-path="url(#clipPath7)"><tspan
           style="font-variant:normal;font-weight:normal;font-stretch:semi-condensed;font-size:18px;font-family:'DejaVu Sans';writing-mode:lr-tb;fill:#000000;fill-opacity:1;fill-rule:nonzero;stroke:none"
           x="0"
           y="0"
           id="tspan6">n</tspan></text>
    </g>
    <g
       id="g7"
       transform="matrix(1.3035789,0,0,1.2973266,-110.39079,-164.32845)">
      <path
         id="path8"
         d="m 162.2,68.778 h 150.88 v 109.61 H 162.2 Z"
         style="fill:#ffffff;fill-opacity:1;fill-rule:evenodd;stroke:#333333;stroke-width:0.72;stroke-linecap:butt;stroke-linejoin:miter;stroke-miterlimit:10;stroke-dasharray:none;stroke-opacity:1"
         transform="matrix(1.3333333,0,0,-1.3333333,0,720)" />
    </g>
    <g
       id="g8"
       transform="matrix(1.3035789,0,0,1.2973266,-110.39079,-164.32845)">
      <text
         id="text8"
         xml:space="preserve"
         transform="matrix(1.3333333,0,0,1.3333333,290.62667,509.50667)"
         clip-path="url(#clipPath9)"><tspan
           style="font-variant:normal;font-weight:normal;font-stretch:semi-condensed;font-size:18px;font-family:'DejaVu Sans';writing-mode:lr-tb;fill:#000000;fill-opacity:1;fill-rule:nonzero;stroke:none"
           x="0 12.474 22.392"
           y="0"
           sodipodi:role="line"
           id="tspan8">Dat</tspan></text>
    </g>
    <g
       id="g9"
       transform="matrix(1.3035789,0,0,1.2973266,-110.39079,-164.32845)">
      <text
         id="text9"
         xml:space="preserve"
         transform="matrix(1.3333333,0,0,1.3333333,329.05333,509.50667)"
         clip-path="url(#clipPath10)"><tspan
           style="font-variant:normal;font-weight:normal;font-stretch:semi-condensed;font-size:18px;font-family:'DejaVu Sans';writing-mode:lr-tb;fill:#000000;fill-opacity:1;fill-rule:nonzero;stroke:none"
           x="0"
           y="0"
           id="tspan9">a</tspan></text>
    </g>
    <g
       id="g10"
       transform="matrix(1.3035789,0,0,1.2973266,-110.39079,-164.32845)">
      <path
         id="path11"
         d="m 254.1,345.7 9.82,8.69 c 9.82,8.7 29.46,26.08 42.41,34.77 12.94,8.7 19.19,8.7 32.22,8.7 13.04,0 32.85,0 42.76,0 h 9.91"
         style="fill:none;stroke:#333333;stroke-width:1.08;stroke-linecap:butt;stroke-linejoin:miter;stroke-miterlimit:10;stroke-dasharray:none;stroke-opacity:1"
         transform="matrix(1.3333333,0,0,-1.3333333,0,720)" />
    </g>
    <g
       id="g11"
       transform="matrix(1.3035789,0,0,1.2973266,-110.39079,-164.32845)">
      <path
         id="path12"
         d="m 263.34,331.05 h 8.28 c 8.28,0 24.83,0 36.23,0 11.4,0 17.65,0 30.73,0 13.09,0 33.01,0 42.97,0 h 9.96"
         style="fill:none;stroke:#333333;stroke-width:1.08;stroke-linecap:butt;stroke-linejoin:miter;stroke-miterlimit:10;stroke-dasharray:none;stroke-opacity:1"
         transform="matrix(1.3333333,0,0,-1.3333333,0,720)" />
    </g>
    <g
       id="g12"
       transform="matrix(1.3035789,0,0,1.2973266,-110.39079,-164.32845)">
      <path
         id="path13"
         d="m 254.1,316.5 9.82,-8.7 c 9.82,-8.69 29.46,-26.07 42.4,-34.77 12.95,-8.69 19.2,-8.69 25.79,-8.69 6.6,0 13.55,0 17.02,0 h 3.48"
         style="fill:none;stroke:#333333;stroke-width:1.08;stroke-linecap:butt;stroke-linejoin:miter;stroke-miterlimit:10;stroke-dasharray:none;stroke-opacity:1"
         transform="matrix(1.3333333,0,0,-1.3333333,0,720)" />
    </g>
    <g
       id="g13"
       transform="matrix(1.3035789,0,0,1.2973266,-110.39079,-164.32845)">
      <path
         id="path14"
         d="m 294.66,122.82 h 3.12 c 3.13,0 9.37,0 15.61,0 6.24,0 12.48,0 21.52,-1.56 9.04,-1.55 20.88,-4.66 26.8,-6.22 l 5.92,-1.56"
         style="fill:none;stroke:#333333;stroke-width:1.08;stroke-linecap:butt;stroke-linejoin:miter;stroke-miterlimit:10;stroke-dasharray:none;stroke-opacity:1"
         transform="matrix(1.3333333,0,0,-1.3333333,0,720)" />
    </g>
    <g
       id="g14"
       transform="matrix(1.3035789,0,0,1.2973266,-110.39079,-164.32845)">
      <path
         id="path15"
         d="m 250.14,316.5 10.47,-12.1 c 10.47,-12.09 31.41,-36.28 45,-48.37 13.59,-12.1 19.84,-12.1 33.69,-25.82 13.85,-13.73 35.3,-41.18 46.02,-54.9 l 10.73,-13.73"
         style="fill:none;stroke:#333333;stroke-width:1.08;stroke-linecap:butt;stroke-linejoin:miter;stroke-miterlimit:10;stroke-dasharray:none;stroke-opacity:1"
         transform="matrix(1.3333333,0,0,-1.3333333,0,720)" />
    </g>
    <g
       id="g15"
       transform="matrix(1.3035789,0,0,1.2973266,-110.39079,-164.32845)">
      <path
         id="path16"
         d="m 511.86,116.27 3.07,0.07 c 3.06,0.06 9.18,0.19 15.37,0.26 6.19,0.06 12.44,0.06 18.69,0.06 6.25,0 12.5,0 15.62,0 h 3.13"
         style="fill:none;stroke:#333333;stroke-width:1.08;stroke-linecap:butt;stroke-linejoin:miter;stroke-miterlimit:10;stroke-dasharray:none;stroke-opacity:1"
         transform="matrix(1.3333333,0,0,-1.3333333,0,720)" />
    </g>
    <g
       id="g16"
       transform="matrix(1.3035789,0,0,1.2973266,-110.39079,-164.32845)">
      <path
         id="path17"
         d="m 211.64,316.51 h 51.657 v 29.25 H 211.64 Z"
         style="fill:#e8eaf6;fill-opacity:1;fill-rule:evenodd;stroke:#333333;stroke-width:0.72;stroke-linecap:butt;stroke-linejoin:miter;stroke-miterlimit:10;stroke-dasharray:none;stroke-opacity:1"
         transform="matrix(1.3333333,0,0,-1.3333333,0,720)" />
    </g>
    <g
       id="g17"
       transform="matrix(1.3035789,0,0,1.2973266,-110.39079,-164.32845)">
      <text
         id="text17"
         xml:space="preserve"
         transform="matrix(1.3333333,0,0,1.3333333,291.10667,284.06667)"
         clip-path="url(#clipPath18)"><tspan
           style="font-variant:normal;font-weight:normal;font-stretch:semi-condensed;font-size:12px;font-family:'DejaVu Sans';writing-mode:lr-tb;fill:#000000;fill-opacity:1;fill-rule:nonzero;stroke:none"
           x="0 3 13.548 20.148001 27 33.588001"
           y="0"
           sodipodi:role="line"
           id="tspan17">imodel</tspan></text>
    </g>
    <g
       id="g18"
       transform="matrix(1.3035789,0,0,1.2973266,-110.39079,-164.32845)">
      <path
         id="path19"
         d="m 391.16,383.23 h 79.623 v 29.25 H 391.16 Z"
         style="fill:#e8eaf6;fill-opacity:1;fill-rule:evenodd;stroke:#333333;stroke-width:0.72;stroke-linecap:butt;stroke-linejoin:miter;stroke-miterlimit:10;stroke-dasharray:none;stroke-opacity:1"
         transform="matrix(1.3333333,0,0,-1.3333333,0,720)" />
    </g>
    <g
       id="g19"
       transform="matrix(1.3035789,0,0,1.2973266,-110.39079,-164.32845)">
      <text
         id="text19"
         xml:space="preserve"
         transform="matrix(1.3333333,0,0,1.3333333,530.46667,195.04)"
         clip-path="url(#clipPath20)"><tspan
           style="font-variant:normal;font-weight:normal;font-stretch:semi-condensed;font-size:12.024px;font-family:'DejaVu Sans';writing-mode:lr-tb;fill:#000000;fill-opacity:1;fill-rule:nonzero;stroke:none"
           x="0"
           y="0"
           id="tspan19">c</tspan></text>
    </g>
    <g
       id="g20"
       transform="matrix(1.3035789,0,0,1.2973266,-110.39079,-164.32845)">
      <text
         id="text20"
         xml:space="preserve"
         transform="matrix(1.3333333,0,0,1.3333333,538.30667,195.04)"
         clip-path="url(#clipPath21)"><tspan
           style="font-variant:normal;font-weight:normal;font-stretch:semi-condensed;font-size:12.024px;font-family:'DejaVu Sans';writing-mode:lr-tb;fill:#000000;fill-opacity:1;fill-rule:nonzero;stroke:none"
           x="0 6.6132002 13.442832 20.044008 25.454807 29.63916 36.264385 43.081993 46.087994"
           y="0"
           sodipodi:role="line"
           id="tspan20">ode_table</tspan></text>
    </g>
    <g
       id="g21"
       transform="matrix(1.3035789,0,0,1.2973266,-110.39079,-164.32845)">
      <text
         id="text21"
         xml:space="preserve"
         transform="matrix(1.3333333,0,0,1.3333333,608.54667,195.04)"
         clip-path="url(#clipPath22)"><tspan
           style="font-variant:normal;font-weight:normal;font-stretch:semi-condensed;font-size:12.024px;font-family:'DejaVu Sans';writing-mode:lr-tb;fill:#000000;fill-opacity:1;fill-rule:nonzero;stroke:none"
           x="0"
           y="0"
           id="tspan21">s</tspan></text>
    </g>
    <g
       id="g22"
       transform="matrix(1.3035789,0,0,1.2973266,-110.39079,-164.32845)">
      <path
         id="path23"
         d="m 391.52,316.51 h 78.901 v 29.25 H 391.52 Z"
         style="fill:#e8eaf6;fill-opacity:1;fill-rule:evenodd;stroke:#333333;stroke-width:0.72;stroke-linecap:butt;stroke-linejoin:miter;stroke-miterlimit:10;stroke-dasharray:none;stroke-opacity:1"
         transform="matrix(1.3333333,0,0,-1.3333333,0,720)" />
    </g>
    <g
       id="g23"
       transform="matrix(1.3035789,0,0,1.2973266,-110.39079,-164.32845)">
      <text
         id="text23"
         xml:space="preserve"
         transform="matrix(1.3333333,0,0,1.3333333,530.88,284.06667)"
         clip-path="url(#clipPath24)"><tspan
           style="font-variant:normal;font-weight:normal;font-stretch:semi-condensed;font-size:12px;font-family:'DejaVu Sans';writing-mode:lr-tb;fill:#000000;fill-opacity:1;fill-rule:nonzero;stroke:none"
           x="0"
           y="0"
           id="tspan23">h</tspan></text>
    </g>
    <g
       id="g24"
       transform="matrix(1.3035789,0,0,1.2973266,-110.39079,-164.32845)">
      <text
         id="text24"
         xml:space="preserve"
         transform="matrix(1.3333333,0,0,1.3333333,540,284.06667)"
         clip-path="url(#clipPath25)"><tspan
           style="font-variant:normal;font-weight:normal;font-stretch:semi-condensed;font-size:12px;font-family:'DejaVu Sans';writing-mode:lr-tb;fill:#000000;fill-opacity:1;fill-rule:nonzero;stroke:none"
           x="0 6.5999999 13.212 20.063999 26.639999 30 33.467999 36.467999 42.096001 48.695999"
           y="0"
           sodipodi:role="line"
           id="tspan24">eader.json</tspan></text>
    </g>
    <g
       id="g25"
       transform="matrix(1.3035789,0,0,1.2973266,-110.39079,-164.32845)">
      <path
         id="path26"
         d="M 352.52,249.79 H 509.4 v 29.25 H 352.52 Z"
         style="fill:#e8eaf6;fill-opacity:1;fill-rule:evenodd;stroke:#333333;stroke-width:0.72;stroke-linecap:butt;stroke-linejoin:miter;stroke-miterlimit:10;stroke-dasharray:none;stroke-opacity:1"
         transform="matrix(1.3333333,0,0,-1.3333333,0,720)" />
    </g>
    <g
       id="g26"
       transform="matrix(1.3035789,0,0,1.2973266,-110.39079,-164.32845)">
      <text
         id="text26"
         xml:space="preserve"
         transform="matrix(1.3333333,0,0,1.3333333,478.94667,373.09333)"
         clip-path="url(#clipPath27)"><tspan
           style="font-variant:normal;font-weight:normal;font-stretch:semi-condensed;font-size:12px;font-family:'DejaVu Sans';writing-mode:lr-tb;fill:#000000;fill-opacity:1;fill-rule:nonzero;stroke:none"
           x="0"
           y="0"
           id="tspan26">o</tspan></text>
    </g>
    <g
       id="g27"
       transform="matrix(1.3035789,0,0,1.2973266,-110.39079,-164.32845)">
      <text
         id="text27"
         xml:space="preserve"
         transform="matrix(1.3333333,0,0,1.3333333,487.74667,373.09333)"
         clip-path="url(#clipPath28)"><tspan
           style="font-variant:normal;font-weight:normal;font-stretch:semi-condensed;font-size:12px;font-family:'DejaVu Sans';writing-mode:lr-tb;fill:#000000;fill-opacity:1;fill-rule:nonzero;stroke:none"
           x="0 6.8520002 12.48 19.08 23.52 29.903999 36.48 40.716 43.716 50.316002 57.119999"
           y="0"
           sodipodi:role="line"
           id="tspan27">bservations</tspan></text>
    </g>
    <g
       id="g28"
       transform="matrix(1.3035789,0,0,1.2973266,-110.39079,-164.32845)">
      <text
         id="text28"
         xml:space="preserve"
         transform="matrix(1.3333333,0,0,1.3333333,571.45333,373.09333)"
         clip-path="url(#clipPath29)"><tspan
           style="font-variant:normal;font-weight:normal;font-stretch:semi-condensed;font-size:12px;font-family:'DejaVu Sans';writing-mode:lr-tb;fill:#000000;fill-opacity:1;fill-rule:nonzero;stroke:none"
           x="0"
           y="0"
           id="tspan28">-</tspan></text>
    </g>
    <g
       id="g29"
       transform="matrix(1.3035789,0,0,1.2973266,-110.39079,-164.32845)">
      <text
         id="text29"
         xml:space="preserve"
         transform="matrix(1.3333333,0,0,1.3333333,576.09333,373.09333)"
         clip-path="url(#clipPath30)"><tspan
           style="font-variant:normal;font-weight:normal;font-stretch:semi-condensed;font-size:12px;font-family:'DejaVu Sans';writing-mode:lr-tb;fill:#000000;fill-opacity:1;fill-rule:nonzero;stroke:none"
           x="0 6.3839998 12.96 17.4 20.4 27.011999 33.863998 36.863998 43.439999 46.908001 49.908001 55.535999 62.136002"
           y="0"
           sodipodi:role="line"
           id="tspan29">variable.json</tspan></text>
    </g>
    <g
       id="g30"
       transform="matrix(1.3035789,0,0,1.2973266,-110.39079,-164.32845)">
      <path
         id="path31"
         d="M 178.77,97.065 H 294.6 v 53.82 H 178.77 Z"
         style="fill:#e8eaf6;fill-opacity:1;fill-rule:evenodd;stroke:#333333;stroke-width:0.72;stroke-linecap:butt;stroke-linejoin:miter;stroke-miterlimit:10;stroke-dasharray:none;stroke-opacity:1"
         transform="matrix(1.3333333,0,0,-1.3333333,0,720)" />
    </g>
    <g
       id="g31"
       transform="matrix(1.3035789,0,0,1.2973266,-110.39079,-164.32845)">
      <text
         id="text31"
         xml:space="preserve"
         transform="matrix(1.3333333,0,0,1.3333333,247.22667,540.89333)"
         clip-path="url(#clipPath32)"><tspan
           style="font-variant:normal;font-weight:normal;font-stretch:semi-condensed;font-size:12px;font-family:'DejaVu Sans';writing-mode:lr-tb;fill:#000000;fill-opacity:1;fill-rule:nonzero;stroke:none"
           x="0"
           y="0"
           id="tspan31">p</tspan></text>
    </g>
    <g
       id="g32"
       transform="matrix(1.3035789,0,0,1.2973266,-110.39079,-164.32845)">
      <text
         id="text32"
         xml:space="preserve"
         transform="matrix(1.3333333,0,0,1.3333333,256.34667,540.89333)"
         clip-path="url(#clipPath33)"><tspan
           style="font-variant:normal;font-weight:normal;font-stretch:semi-condensed;font-size:12px;font-family:'DejaVu Sans';writing-mode:lr-tb;fill:#000000;fill-opacity:1;fill-rule:nonzero;stroke:none"
           x="0 6.612 13.452 20.304001 26.879999 32.507999 35.987999 44.268002 50.880001 55.068001 61.68 65.496002 69.935997 76.547997 87.084"
           y="0"
           sodipodi:role="line"
           id="tspan32">andas.Dataframe</tspan></text>
    </g>
    <g
       id="g33"
       transform="matrix(1.3035789,0,0,1.2973266,-110.39079,-164.32845)">
      <text
         id="text33"
         xml:space="preserve"
         transform="matrix(1.3333333,0,0,1.3333333,247.22667,560.09333)"
         clip-path="url(#clipPath34)"><tspan
           style="font-variant:normal;font-weight:normal;font-stretch:semi-condensed;font-size:12px;font-family:'DejaVu Sans';writing-mode:lr-tb;fill:#000000;fill-opacity:1;fill-rule:nonzero;stroke:none"
           x="0 6.5999999 10.068 16.92 20.375999"
           y="0"
           sodipodi:role="line"
           id="tspan33">e.g. </tspan></text>
    </g>
    <g
       id="g34"
       transform="matrix(1.3035789,0,0,1.2973266,-110.39079,-164.32845)">
      <text
         id="text34"
         xml:space="preserve"
         transform="matrix(1.3333333,0,0,1.3333333,278.74667,560.09333)"
         clip-path="url(#clipPath35)"><tspan
           style="font-variant:normal;font-weight:normal;font-stretch:semi-condensed;font-size:12px;font-family:'DejaVu Sans';writing-mode:lr-tb;fill:#000000;fill-opacity:1;fill-rule:nonzero;stroke:none"
           x="0 6.5999999 13.44 17.639999 24.492001 31.332001"
           y="0"
           sodipodi:role="line"
           id="tspan34">output</tspan></text>
    </g>
    <g
       id="g35"
       transform="matrix(1.3035789,0,0,1.2973266,-110.39079,-164.32845)">
      <text
         id="text35"
         xml:space="preserve"
         transform="matrix(1.3333333,0,0,1.3333333,330.90667,560.09333)"
         clip-path="url(#clipPath36)"><tspan
           style="font-variant:normal;font-weight:normal;font-stretch:semi-condensed;font-size:12px;font-family:'DejaVu Sans';writing-mode:lr-tb;fill:#000000;fill-opacity:1;fill-rule:nonzero;stroke:none"
           x="0 3.8280001 8.0279999 14.628"
           y="0"
           sodipodi:role="line"
           id="tspan35">from</tspan></text>
    </g>
    <g
       id="g36"
       transform="matrix(1.3035789,0,0,1.2973266,-110.39079,-164.32845)">
      <text
         id="text36"
         xml:space="preserve"
         transform="matrix(1.3333333,0,0,1.3333333,247.22667,579.29333)"
         clip-path="url(#clipPath37)"><tspan
           style="font-variant:normal;font-weight:normal;font-stretch:semi-condensed;font-size:12px;font-family:'DejaVu Sans';writing-mode:lr-tb;fill:#000000;fill-opacity:1;fill-rule:nonzero;stroke:none"
           x="0 10.548 17.4 21.216 26.615999 30.816 37.416 44.028 50.880001 57.456001"
           y="0"
           sodipodi:role="line"
           id="tspan36">mdf_reader</tspan></text>
    </g>
    <g
       id="g37"
       transform="matrix(1.3035789,0,0,1.2973266,-110.39079,-164.32845)">
      <path
         id="path38"
         d="M 430.99,36.178 511.5,116.69 430.99,197.2 350.48,116.69 Z"
         style="fill:#fcc679;fill-opacity:1;fill-rule:evenodd;stroke:#333333;stroke-width:0.72;stroke-linecap:butt;stroke-linejoin:miter;stroke-miterlimit:10;stroke-dasharray:none;stroke-opacity:1"
         transform="matrix(1.3333333,0,0,-1.3333333,0,720)" />
    </g>
    <g
       id="g38"
       transform="matrix(1.3035789,0,0,1.2973266,-110.39079,-164.32845)">
      <text
         id="text38"
         xml:space="preserve"
         transform="matrix(1.3333333,0,0,1.3333333,483.90667,570.14667)"
         clip-path="url(#clipPath39)"><tspan
           style="font-variant:normal;font-weight:normal;font-stretch:semi-condensed;font-size:12px;font-family:'DejaVu Sans';writing-mode:lr-tb;fill:#000000;fill-opacity:1;fill-rule:nonzero;stroke:none"
           x="0 5.8800001 12.732 23.243999 28.643999 39.228001 45.84 52.692001 59.543999 66.108002 69.468002 72.935997 83.484001 90.096001 96.947998 102.348 112.86 119.46 126.312"
           y="0"
           sodipodi:role="line"
           id="tspan38">cdm_mapper.map_mode</tspan></text>
    </g>
    <g
       id="g39"
       transform="matrix(1.3035789,0,0,1.2973266,-110.39079,-164.32845)">
      <text
         id="text39"
         xml:space="preserve"
         transform="matrix(1.3333333,0,0,1.3333333,661.21333,570.14667)"
         clip-path="url(#clipPath40)"><tspan
           style="font-variant:normal;font-weight:normal;font-stretch:semi-condensed;font-size:12px;font-family:'DejaVu Sans';writing-mode:lr-tb;fill:#000000;fill-opacity:1;fill-rule:nonzero;stroke:none"
           x="0"
           y="0"
           id="tspan39">l</tspan></text>
    </g>
    <g
       id="g40"
       transform="matrix(1.3035789,0,0,1.2973266,-110.39079,-164.32845)">
      <path
         id="path41"
         d="m 567.68,73.628 h 230.19 v 86.25 H 567.68 Z"
         style="fill:#e8eaf6;fill-opacity:1;fill-rule:evenodd;stroke:#333333;stroke-width:0.72;stroke-linecap:butt;stroke-linejoin:miter;stroke-miterlimit:10;stroke-dasharray:none;stroke-opacity:1"
         transform="matrix(1.3333333,0,0,-1.3333333,0,720)" />
    </g>
    <g
       id="g41"
       transform="matrix(1.3035789,0,0,1.2973266,-110.39079,-164.32845)">
      <text
         id="text41"
         xml:space="preserve"
         transform="matrix(1.3333333,0,0,1.3333333,872.66667,534.05333)"
         clip-path="url(#clipPath42)"><tspan
           style="font-variant:normal;font-weight:normal;font-stretch:semi-condensed;font-size:18px;font-family:'DejaVu Sans';writing-mode:lr-tb;fill:#000000;fill-opacity:1;fill-rule:nonzero;stroke:none"
           x="0 12.744 23.040001 29.393999 39.672001 50.021999"
           y="0"
           sodipodi:role="line"
           id="tspan41">Output</tspan></text>
    </g>
    <g
       id="g42"
       transform="matrix(1.3035789,0,0,1.2973266,-110.39079,-164.32845)">
      <text
         id="text42"
         xml:space="preserve"
         transform="matrix(1.3333333,0,0,1.3333333,768.50667,574.4)"
         clip-path="url(#clipPath43)"><tspan
           style="font-variant:normal;font-weight:normal;font-stretch:semi-condensed;font-size:12px;font-family:'DejaVu Sans';writing-mode:lr-tb;fill:#000000;fill-opacity:1;fill-rule:nonzero;stroke:none"
           x="0"
           y="0"
           id="tspan42">A</tspan></text>
    </g>
    <g
       id="g43"
       transform="matrix(1.3035789,0,0,1.2973266,-110.39079,-164.32845)">
      <text
         id="text43"
         xml:space="preserve"
         transform="matrix(1.3333333,0,0,1.3333333,782.90667,574.4)"
         clip-path="url(#clipPath44)"><tspan
           style="font-variant:normal;font-weight:normal;font-stretch:semi-condensed;font-size:12px;font-family:'DejaVu Sans';writing-mode:lr-tb;fill:#000000;fill-opacity:1;fill-rule:nonzero;stroke:none"
           x="0 6.8520002 13.2 17.436001 24.24 30.84"
           y="0"
           sodipodi:role="line"
           id="tspan43">python</tspan></text>
    </g>
    <g
       id="g44"
       transform="matrix(1.3035789,0,0,1.2973266,-110.39079,-164.32845)">
      <text
         id="text44"
         xml:space="preserve"
         transform="matrix(1.3333333,0,0,1.3333333,837.78667,574.4)"
         clip-path="url(#clipPath45)"><tspan
           style="font-variant:normal;font-weight:normal;font-stretch:semi-condensed;font-size:12px;font-family:'DejaVu Sans';writing-mode:lr-tb;fill:#000000;fill-opacity:1;fill-rule:nonzero;stroke:none"
           x="0 6.8520002 9.8520002 15.72 19.955999 22.955999 29.556 36.360001 42.972 47.411999"
           y="0"
           sodipodi:role="line"
           id="tspan44">dictionary</tspan></text>
    </g>
    <g
       id="g45"
       transform="matrix(1.3035789,0,0,1.2973266,-110.39079,-164.32845)">
      <text
         id="text45"
         xml:space="preserve"
         transform="matrix(1.3333333,0,0,1.3333333,914.14667,574.4)"
         clip-path="url(#clipPath46)"><tspan
           style="font-variant:normal;font-weight:normal;font-stretch:semi-condensed;font-size:12px;font-family:'DejaVu Sans';writing-mode:lr-tb;fill:#000000;fill-opacity:1;fill-rule:nonzero;stroke:none"
           x="0 3.8280001 10.428"
           y="0"
           sodipodi:role="line"
           id="tspan45">for</tspan></text>
    </g>
    <g
       id="g46"
       transform="matrix(1.3035789,0,0,1.2973266,-110.39079,-164.32845)">
      <text
         id="text46"
         xml:space="preserve"
         transform="matrix(1.3333333,0,0,1.3333333,938.30667,574.4)"
         clip-path="url(#clipPath47)"><tspan
           style="font-variant:normal;font-weight:normal;font-stretch:semi-condensed;font-size:12px;font-family:'DejaVu Sans';writing-mode:lr-tb;fill:#000000;fill-opacity:1;fill-rule:nonzero;stroke:none"
           x="0 6.5999999 13.212 19.08"
           y="0"
           sodipodi:role="line"
           id="tspan46">each</tspan></text>
    </g>
    <g
       id="g47"
       transform="matrix(1.3035789,0,0,1.2973266,-110.39079,-164.32845)">
      <text
         id="text47"
         xml:space="preserve"
         transform="matrix(1.3333333,0,0,1.3333333,977.50667,574.4)"
         clip-path="url(#clipPath48)"><tspan
           style="font-variant:normal;font-weight:normal;font-stretch:semi-condensed;font-size:12px;font-family:'DejaVu Sans';writing-mode:lr-tb;fill:#000000;fill-opacity:1;fill-rule:nonzero;stroke:none"
           x="0 7.5359998 15.852"
           y="0"
           sodipodi:role="line"
           id="tspan47">CDM</tspan></text>
    </g>
    <g
       id="g48"
       transform="matrix(1.3035789,0,0,1.2973266,-110.39079,-164.32845)">
      <text
         id="text48"
         xml:space="preserve"
         transform="matrix(1.3333333,0,0,1.3333333,1015.7467,574.4)"
         clip-path="url(#clipPath49)"><tspan
           style="font-variant:normal;font-weight:normal;font-stretch:semi-condensed;font-size:12px;font-family:'DejaVu Sans';writing-mode:lr-tb;fill:#000000;fill-opacity:1;fill-rule:nonzero;stroke:none"
           x="0 4.2360001 10.8 17.652 20.652"
           y="0"
           sodipodi:role="line"
           id="tspan48">table</tspan></text>
    </g>
    <g
       id="g49"
       transform="matrix(1.3035789,0,0,1.2973266,-110.39079,-164.32845)">
      <text
         id="text49"
         xml:space="preserve"
         transform="matrix(1.3333333,0,0,1.3333333,828.50667,593.6)"
         clip-path="url(#clipPath50)"><tspan
           style="font-variant:normal;font-weight:normal;font-stretch:semi-condensed;font-size:12px;font-family:'DejaVu Sans';writing-mode:lr-tb;fill:#000000;fill-opacity:1;fill-rule:nonzero;stroke:none"
           x="0 5.6279998 12.48 19.08 24.959999 27.959999 31.788 34.787998 41.388"
           y="0"
           sodipodi:role="line"
           id="tspan49">specified</tspan></text>
    </g>
    <g
       id="g50"
       transform="matrix(1.3035789,0,0,1.2973266,-110.39079,-164.32845)">
      <text
         id="text50"
         xml:space="preserve"
         transform="matrix(1.3333333,0,0,1.3333333,897.34667,593.6)"
         clip-path="url(#clipPath51)"><tspan
           style="font-variant:normal;font-weight:normal;font-stretch:semi-condensed;font-size:12px;font-family:'DejaVu Sans';writing-mode:lr-tb;fill:#000000;fill-opacity:1;fill-rule:nonzero;stroke:none"
           x="0 3"
           y="0"
           sodipodi:role="line"
           id="tspan50">in</tspan></text>
    </g>
    <g
       id="g51"
       transform="matrix(1.3035789,0,0,1.2973266,-110.39079,-164.32845)">
      <text
         id="text51"
         xml:space="preserve"
         transform="matrix(1.3333333,0,0,1.3333333,915.10667,593.6)"
         clip-path="url(#clipPath52)"><tspan
           style="font-variant:normal;font-weight:normal;font-stretch:semi-condensed;font-size:12px;font-family:'DejaVu Sans';writing-mode:lr-tb;fill:#000000;fill-opacity:1;fill-rule:nonzero;stroke:none"
           x="0 4.2360001 11.04"
           y="0"
           sodipodi:role="line"
           id="tspan51">the</tspan></text>
    </g>
    <g
       id="g52"
       transform="matrix(1.3035789,0,0,1.2973266,-110.39079,-164.32845)">
      <text
         id="text52"
         xml:space="preserve"
         transform="matrix(1.3333333,0,0,1.3333333,943.26667,593.6)"
         clip-path="url(#clipPath53)"><tspan
           style="font-variant:normal;font-weight:normal;font-stretch:semi-condensed;font-size:12px;font-family:'DejaVu Sans';writing-mode:lr-tb;fill:#000000;fill-opacity:1;fill-rule:nonzero;stroke:none"
           x="0 3 13.548 20.148001 27 33.588001"
           y="0"
           sodipodi:role="line"
           id="tspan52">imodel</tspan></text>
    </g>
    <g
       id="g53"
       transform="matrix(1.3035789,0,0,1.2973266,-110.39079,-164.32845)">
      <text
         id="text53"
         xml:space="preserve"
         transform="matrix(1.3333333,0,0,1.3333333,818.42667,612.8)"
         clip-path="url(#clipPath54)"><tspan
           style="font-variant:normal;font-weight:normal;font-stretch:semi-condensed;font-size:12px;font-family:'DejaVu Sans';writing-mode:lr-tb;fill:#000000;fill-opacity:1;fill-rule:nonzero;stroke:none"
           x="0 6.5999999 10.068 16.92"
           y="0"
           sodipodi:role="line"
           id="tspan53">e.g.</tspan></text>
    </g>
    <g
       id="g54"
       transform="matrix(1.3035789,0,0,1.2973266,-110.39079,-164.32845)">
      <text
         id="text54"
         xml:space="preserve"
         transform="matrix(1.3333333,0,0,1.3333333,849.94667,612.8)"
         clip-path="url(#clipPath55)"><tspan
           style="font-variant:normal;font-weight:normal;font-stretch:semi-condensed;font-size:12px;font-family:'DejaVu Sans';writing-mode:lr-tb;fill:#000000;fill-opacity:1;fill-rule:nonzero;stroke:none"
           x="0 6.8400002 13.44 20.052 26.903999 33.48"
           y="0"
           sodipodi:role="line"
           id="tspan54">header</tspan></text>
    </g>
    <g
       id="g55"
       transform="matrix(1.3035789,0,0,1.2973266,-110.39079,-164.32845)">
      <text
         id="text55"
         xml:space="preserve"
         transform="matrix(1.3333333,0,0,1.3333333,900.54667,612.8)"
         clip-path="url(#clipPath56)"><tspan
           style="font-variant:normal;font-weight:normal;font-stretch:semi-condensed;font-size:12px;font-family:'DejaVu Sans';writing-mode:lr-tb;fill:#000000;fill-opacity:1;fill-rule:nonzero;stroke:none"
           x="0"
           y="0"
           id="tspan55">,</tspan></text>
    </g>
    <g
       id="g56"
       transform="matrix(1.3035789,0,0,1.2973266,-110.39079,-164.32845)">
      <text
         id="text56"
         xml:space="preserve"
         transform="matrix(1.3333333,0,0,1.3333333,909.66667,612.8)"
         clip-path="url(#clipPath57)"><tspan
           style="font-variant:normal;font-weight:normal;font-stretch:semi-condensed;font-size:12px;font-family:'DejaVu Sans';writing-mode:lr-tb;fill:#000000;fill-opacity:1;fill-rule:nonzero;stroke:none"
           x="0 6.5999999 13.452 19.08 25.68 30.120001 36.504002 43.080002 47.316002 50.316002 56.916 63.720001"
           y="0"
           sodipodi:role="line"
           id="tspan56">observations</tspan></text>
    </g>
  </g>
</svg>
